# xmcd
#
# Track frame offsets:
#	150
#	12572
#	33102
#	56727
#	79662
#	96557
#	110477
#	126710
#	158205
#	171387
#	185792
#	203542
#	221132
#
# Disc length: 3151 seconds
#
# Revision: 0
# Processed by: cddbd v1.5.1PL0 Copyright (c) Steve Scherf et al.
# Submitted via: EasyCDDAExtractor 7.1.2.1
#
DISCID=c20c4d0d
DTITLE=Marva Wright - Bluesiana Mama
DYEAR=1997
DGENRE=Blues
TTITLE0=Let The Good Times Roll
TTITLE1=The Boogie Song
TTITLE2=Little Red Rooster
TTITLE3=Driving Wheel
TTITLE4=Bluesiana Mama
TTITLE5=Got My Mojo Working
TTITLE6=Members Only
TTITLE7=I'd Rather Go Blind
TTITLE8=Go Tell It On The Mountain
TTITLE9=Never Make Your Move To Soon
TTITLE10=Mama He Treats Your Daughter Mean
TTITLE11=C C Rider
TTITLE12=Shake Shake
EXTD=
EXTT0=
EXTT1=
EXTT2=
EXTT3=
EXTT4=
EXTT5=
EXTT6=
EXTT7=
EXTT8=
EXTT9=
EXTT10=
EXTT11=
EXTT12=
PLAYORDER=
